<svg width="110" height="72" viewBox="0 0 110 72" fill="none" xmlns="http://www.w3.org/2000/svg">
<path d="M83.6145 20H40.0258C36.8269 20 33.934 21.8915 32.6544 24.8123L24.0313 45.5356C23.9478 45.7582 24.0313 46.0363 24.2816 46.1198C24.3373 46.1476 24.3929 46.1476 24.4485 46.1476H44.1427C45.5335 46.1476 46.1455 44.8124 45.0606 43.7276L37.8283 36.9681C34.0175 33.2407 35.6586 24.6176 43.5585 24.6176H82.1124C82.3071 24.6176 82.474 24.5063 82.5574 24.3116L84.0873 20.6398C84.1151 20.5841 84.1151 20.5285 84.1151 20.4729C84.0873 20.1947 83.8648 20 83.6145 20Z" fill="white"/>
<path d="M79.2748 30.5701H71.8756C71.4027 30.5701 70.9577 30.8482 70.7629 31.2933L62.4736 51.3212C62.4458 51.3769 62.418 51.4603 62.418 51.5438C62.418 51.7941 62.6127 51.9888 62.863 51.9888H65.6169C68.8714 51.9888 71.7922 50.0695 73.0717 47.0653L79.6643 31.1542C79.6921 31.0986 79.6921 31.043 79.6921 30.9873C79.7199 30.7648 79.5252 30.5979 79.2748 30.5701Z" fill="white"/>
<path d="M64.7271 31.0154C64.7271 30.765 64.5324 30.5703 64.282 30.5703H43.2805C42.14 30.5703 41.1386 31.9611 42.3625 33.0738L49.2889 39.5273C49.2889 39.5273 52.0983 42.1142 51.4864 45.8138C50.9579 49.0684 48.7325 51.0711 47.1192 51.7944C47.0635 51.8222 47.0357 51.8778 47.0635 51.9335C47.0914 51.9891 47.1192 52.0169 47.1748 51.9891H55.2694C55.7423 51.9891 56.1874 51.7109 56.3821 51.2659L64.6993 31.1823C64.7271 31.0988 64.7271 31.0432 64.7271 31.0154Z" fill="white"/>
</svg>
